<svg xmlns="http://www.w3.org/2000/svg" viewBox="0 0 600 400" width="600" height="400"><defs>
    <filter id="grain">
      <feTurbulence type="fractalNoise" baseFrequency="0.85" numOctaves="2" stitchTiles="stitch"/>
      <feColorMatrix type="saturate" values="0"/>
    </filter>
    <pattern id="heads" width="62" height="44" patternUnits="userSpaceOnUse">
      <circle cx="31" cy="28" r="16" fill="#170606"/>
    </pattern>
    <pattern id="bulbs" width="46" height="46" patternUnits="userSpaceOnUse">
      <circle cx="23" cy="23" r="6" fill="#CEB26A"/>
    </pattern>
    <symbol id="ph-1" viewBox="0 0 600 400" preserveAspectRatio="xMidYMid slice">
      <rect width="600" height="400" fill="#380A06"/>
      <polygon points="300,-30 130,400 470,400" fill="#E9CB85" opacity=".2"/>
      <ellipse cx="300" cy="378" rx="160" ry="26" fill="#E9CB85" opacity=".3"/>
      <circle cx="300" cy="278" r="27" fill="#120505"/>
      <rect x="268" y="308" width="64" height="92" rx="10" fill="#120505"/>
      <rect width="600" height="400" filter="url(#grain)" opacity=".12"/>
    </symbol>
    <symbol id="ph-2" viewBox="0 0 600 400" preserveAspectRatio="xMidYMid slice">
      <rect width="600" height="400" fill="#4E0F09"/>
      <rect x="18"  width="26" height="400" fill="#380A06"/><rect x="82"  width="30" height="400" fill="#380A06"/>
      <rect x="150" width="24" height="400" fill="#380A06"/><rect x="212" width="32" height="400" fill="#380A06"/>
      <rect x="286" width="26" height="400" fill="#380A06"/><rect x="348" width="30" height="400" fill="#380A06"/>
      <rect x="416" width="24" height="400" fill="#380A06"/><rect x="478" width="32" height="400" fill="#380A06"/>
      <rect x="548" width="26" height="400" fill="#380A06"/>
      <rect y="0" width="600" height="70" fill="#E9CB85" opacity=".14"/>
      <!-- a cortina termina na ribalta; abaixo dela, o piso do palco -->
      <rect y="348" width="600" height="52" fill="#2B0805"/>
      <rect y="336" width="600" height="12" fill="#CEB26A" opacity=".85"/>
      <rect width="600" height="400" filter="url(#grain)" opacity=".12"/>
    </symbol>
    <symbol id="ph-3" viewBox="0 0 600 400" preserveAspectRatio="xMidYMid slice">
      <rect width="600" height="400" fill="#380A06"/>
      <ellipse cx="300" cy="80" rx="330" ry="130" fill="#E9CB85" opacity=".14"/>
      <rect y="230" width="600" height="170" fill="url(#heads)"/>
      <!-- a pessoa que se destaca na plateia: sentada NUMA cadeira da malha (62x44, centro 31+62k / 28+44m) -->
      <circle cx="341" cy="248" r="16" fill="#CEB26A"/>
      <rect width="600" height="400" filter="url(#grain)" opacity=".12"/>
    </symbol>
    <symbol id="ph-4" viewBox="0 0 600 400" preserveAspectRatio="xMidYMid slice">
      <!-- teatro de arena: plateia completa e alinhada dos dois lados, um ator só no centro -->
      <rect width="600" height="400" fill="#4E0F09"/>
      <g fill="#1F0805">
        <circle cx="30" cy="34" r="12"/><circle cx="84" cy="34" r="12"/><circle cx="138" cy="34" r="12"/><circle cx="192" cy="34" r="12"/><circle cx="246" cy="34" r="12"/><circle cx="300" cy="34" r="12"/><circle cx="354" cy="34" r="12"/><circle cx="408" cy="34" r="12"/><circle cx="462" cy="34" r="12"/><circle cx="516" cy="34" r="12"/><circle cx="570" cy="34" r="12"/>
        <circle cx="30" cy="78" r="12"/><circle cx="84" cy="78" r="12"/><circle cx="138" cy="78" r="12"/><circle cx="192" cy="78" r="12"/><circle cx="246" cy="78" r="12"/><circle cx="300" cy="78" r="12"/><circle cx="354" cy="78" r="12"/><circle cx="408" cy="78" r="12"/><circle cx="462" cy="78" r="12"/><circle cx="516" cy="78" r="12"/><circle cx="570" cy="78" r="12"/>
        <circle cx="30" cy="322" r="12"/><circle cx="84" cy="322" r="12"/><circle cx="138" cy="322" r="12"/><circle cx="192" cy="322" r="12"/><circle cx="246" cy="322" r="12"/><circle cx="300" cy="322" r="12"/><circle cx="354" cy="322" r="12"/><circle cx="408" cy="322" r="12"/><circle cx="462" cy="322" r="12"/><circle cx="516" cy="322" r="12"/><circle cx="570" cy="322" r="12"/>
        <circle cx="30" cy="366" r="12"/><circle cx="84" cy="366" r="12"/><circle cx="138" cy="366" r="12"/><circle cx="192" cy="366" r="12"/><circle cx="246" cy="366" r="12"/><circle cx="300" cy="366" r="12"/><circle cx="354" cy="366" r="12"/><circle cx="408" cy="366" r="12"/><circle cx="462" cy="366" r="12"/><circle cx="516" cy="366" r="12"/><circle cx="570" cy="366" r="12"/>
      </g>
      <rect x="120" y="136" width="360" height="128" fill="#380A06" stroke="#CEB26A" stroke-width="3"/>
      <ellipse cx="300" cy="200" rx="72" ry="34" fill="#E9CB85" opacity=".16"/>
      <circle cx="300" cy="200" r="13" fill="#CEB26A"/>
      <rect width="600" height="400" filter="url(#grain)" opacity=".12"/>
    </symbol>
    <symbol id="ph-5" viewBox="0 0 600 400" preserveAspectRatio="xMidYMid slice">
      <rect width="600" height="400" fill="#380A06"/>
      <rect x="96"  width="5" height="400" fill="#CEB26A" opacity=".55"/>
      <rect x="206" width="5" height="400" fill="#CEB26A" opacity=".4"/>
      <rect x="316" width="5" height="400" fill="#CEB26A" opacity=".55"/>
      <rect x="426" width="5" height="400" fill="#CEB26A" opacity=".4"/>
      <rect x="516" width="5" height="400" fill="#CEB26A" opacity=".55"/>
      <rect x="78"  y="210" width="42" height="78" fill="#CEB26A" opacity=".32"/>
      <rect x="298" y="120" width="42" height="78" fill="#CEB26A" opacity=".32"/>
      <rect x="498" y="270" width="42" height="78" fill="#CEB26A" opacity=".32"/>
      <rect width="600" height="400" filter="url(#grain)" opacity=".12"/>
    </symbol>
    <symbol id="ph-6" viewBox="0 0 600 400" preserveAspectRatio="xMidYMid slice">
      <rect width="600" height="400" fill="#4E0F09"/>
      <rect x="0"   y="330" width="140" height="70" fill="#CEB26A" opacity=".8"/>
      <rect x="140" y="260" width="140" height="140" fill="#380A06"/>
      <rect x="280" y="190" width="140" height="210" fill="#CEB26A" opacity=".55"/>
      <rect x="420" y="120" width="180" height="280" fill="#380A06"/>
      <circle cx="510" cy="80" r="34" fill="#E9CB85" opacity=".7"/>
      <rect width="600" height="400" filter="url(#grain)" opacity=".12"/>
    </symbol>
  </defs><use href="#ph-3"/></svg>